<?xml version="1.0" standalone="no"?>
<!DOCTYPE svg PUBLIC "-//W3C//DTD SVG 20010904//EN"
 "http://www.w3.org/TR/2001/REC-SVG-20010904/DTD/svg10.dtd">
<svg version="1.0" xmlns="http://www.w3.org/2000/svg"
 width="500.000000pt" height="500.000000pt" viewBox="0 0 500.000000 500.000000"
 preserveAspectRatio="xMidYMid meet">

<g transform="translate(0.000000,500.000000) scale(0.100000,-0.100000)"
fill="#000000" stroke="none">
<path d="M2612 4130 c0 -14 2 -19 5 -12 2 6 2 18 0 25 -3 6 -5 1 -5 -13z"/>
<path d="M2540 3793 c-30 -24 -67 -56 -82 -69 -14 -13 -31 -24 -37 -24 -18 0
-12 -36 9 -55 19 -17 21 -16 89 39 39 31 74 56 78 56 4 0 34 -20 66 -45 l57
-46 27 26 c18 15 24 28 18 34 -26 24 -161 131 -165 130 -3 0 -30 -21 -60 -46z"/>
<path d="M3384 3380 c0 -74 1 -105 3 -67 2 37 2 97 0 135 -2 37 -3 6 -3 -68z"/>
</g>
</svg>
